<svg xmlns="http://www.w3.org/2000/svg" viewBox="0 0 724 1448"><path d="M280.26 647.4c11.65 10.74 22.18 21.04 31.02 34.3 15.82 23.72 27.55 49.72 34.01 77.58 1.34 5.79-6.14 20.34-12.62 20.22q-.52-.01-.72-.49-.67-1.59-1.21-3.13c-14.68-41.71-27.96-79.71-46.87-117.01-1.9-3.74-3.05-7.33-4.06-11.2a.27.27 0 01.45-.27z" /><path d="M331.64 898.32q-.17.57-.23-.02c-2.23-25.01-8.47-50.09-14.25-74.53q-19.4-82.1-42.46-163.69-.58-2.08.33-.13c19.88 42.53 38.94 86.51 51.64 132.07 9.49 34.06 15.59 71.67 4.97 106.3z" /><path d="M334.46 789.17c1.56-2.63 14.39-20.38 16.2-20.37a1.71 1.7-89.2 011.7 1.76q-1.12 34.88-7.4 68.95c-.38 2.06-1.41 4.27-2.16 6.23q-.24.62-.34-.04-3.68-25.45-8.44-50.7c-.34-1.79-.63-4 .44-5.83z" /><path d="M395.47 779.4c-5.7 1.33-11.34-11.87-12.46-15.86q-.61-2.18-.02-4.65 10.17-42.64 35.06-78.81c9.47-13.77 18.83-22.36 29.85-32.56q.55-.5.4.22-1.12 5.7-3.73 10.83c-19.44 38.38-33.3 79.2-47.77 119.65a1.84 1.83-86.4 01-1.33 1.18z" /><path d="M453.65 658.99q.67-1.43.23.09-26.73 93.75-48.63 189.74c-1.98 8.7-3.66 17.9-5.44 26.84q-2.19 11.05-2.78 22.43a.15.15 0 01-.3.04c-8.18-24.48-6.74-51.98-1.87-76.86 11.07-56.49 34.44-110.42 58.79-162.28z" /><path d="M377.91 768.67c1.49.84 1.76 1.49 2.66 2.66q6.16 8.04 12.23 16.13c1.88 2.52 1.97 4.18 1.38 7.45q-4.57 25.23-8.43 50.57-.11.71-.4.05-1.89-4.29-2.54-8.09-5.57-32.28-6.98-65.01-.09-2 .81-3.44a.95.94 30.8 011.27-.32z" /></svg>